<svg width="24" height="24" viewBox="0 0 24 24" fill="none" xmlns="http://www.w3.org/2000/svg">
<path d="M20.548 10.038L16.437 4.138C15.976 3.47761 15.3623 2.93836 14.6481 2.56611C13.9339 2.19387 13.1404 1.99966 12.335 2H12C11.2044 2 10.4413 2.31607 9.87868 2.87868C9.31607 3.44129 9 4.20435 9 5V10H4C2.93913 10 1.92172 10.4214 1.17157 11.1716C0.421427 11.9217 0 12.9391 0 14L0 16C0 16.5304 0.210714 17.0391 0.585786 17.4142C0.960859 17.7893 1.46957 18 2 18V18.5C2 19.4283 2.36875 20.3185 3.02513 20.9749C3.6815 21.6313 4.57174 22 5.5 22C6.42826 22 7.3185 21.6313 7.97487 20.9749C8.63125 20.3185 9 19.4283 9 18.5V18H15V18.5C15 19.4283 15.3687 20.3185 16.0251 20.9749C16.6815 21.6313 17.5717 22 18.5 22C19.4283 22 20.3185 21.6313 20.9749 20.9749C21.6313 20.3185 22 19.4283 22 18.5V18C22.5304 18 23.0391 17.7893 23.4142 17.4142C23.7893 17.0391 24 16.5304 24 16V14C23.9999 13.0341 23.6504 12.1009 23.0159 11.3726C22.3814 10.6444 21.5048 10.1703 20.548 10.038ZM11 5C11 4.73478 11.1054 4.48043 11.2929 4.29289C11.4804 4.10536 11.7348 4 12 4H12.335C12.819 3.99932 13.2959 4.11574 13.7252 4.33932C14.1544 4.5629 14.5232 4.88702 14.8 5.284L18.084 10H11V5ZM7 18.5C7 18.8978 6.84196 19.2794 6.56066 19.5607C6.27936 19.842 5.89782 20 5.5 20C5.10218 20 4.72064 19.842 4.43934 19.5607C4.15804 19.2794 4 18.8978 4 18.5V18H7V18.5ZM20 18.5C20 18.8978 19.842 19.2794 19.5607 19.5607C19.2794 19.842 18.8978 20 18.5 20C18.1022 20 17.7206 19.842 17.4393 19.5607C17.158 19.2794 17 18.8978 17 18.5V18H20V18.5ZM22 16H2V14C2 13.4696 2.21071 12.9609 2.58579 12.5858C2.96086 12.2107 3.46957 12 4 12H20C20.5304 12 21.0391 12.2107 21.4142 12.5858C21.7893 12.9609 22 13.4696 22 14V16Z" fill="#2A3649"/>
</svg>
