<svg width="24" height="24" viewBox="0 0 24 24" fill="none" xmlns="http://www.w3.org/2000/svg">
<g clip-path="url(#clip0_758_37858)">
<path d="M17.5 11C18.3284 11 19 10.3284 19 9.5C19 8.67157 18.3284 8 17.5 8C16.6716 8 16 8.67157 16 9.5C16 10.3284 16.6716 11 17.5 11Z" fill="#2A3649"/>
<path d="M12.5 8C13.3284 8 14 7.32843 14 6.5C14 5.67157 13.3284 5 12.5 5C11.6716 5 11 5.67157 11 6.5C11 7.32843 11.6716 8 12.5 8Z" fill="#2A3649"/>
<path d="M7.5 11C8.32843 11 9 10.3284 9 9.5C9 8.67157 8.32843 8 7.5 8C6.67157 8 6 8.67157 6 9.5C6 10.3284 6.67157 11 7.5 11Z" fill="#2A3649"/>
<path d="M7.5 17C8.32843 17 9 16.3284 9 15.5C9 14.6716 8.32843 14 7.5 14C6.67157 14 6 14.6716 6 15.5C6 16.3284 6.67157 17 7.5 17Z" fill="#2A3649"/>
<path d="M12.0829 24C9.69216 23.9998 7.35597 23.2854 5.37392 21.9486C3.39187 20.6117 1.85431 18.7133 0.958409 16.4968C0.062511 14.2803 -0.150886 11.8466 0.345584 9.50802C0.842054 7.16939 2.02576 5.03236 3.7449 3.37097C4.89971 2.24569 6.27142 1.36715 7.77654 0.788831C9.28165 0.210508 10.8887 -0.0555078 12.4999 0.00697417C15.5447 0.149087 18.4249 1.42996 20.5697 3.59571C22.7145 5.76145 23.9674 8.65399 24.0799 11.7C24.1206 13.2533 23.8574 14.7996 23.3049 16.252C23.1925 16.5479 23.0074 16.8107 22.7668 17.0164C22.5262 17.2221 22.2377 17.364 21.9279 17.429C21.613 17.4983 21.2857 17.4869 20.9764 17.3958C20.6672 17.3048 20.3859 17.1369 20.1589 16.908L20.0589 16.808C19.5582 16.3073 18.9198 15.967 18.225 15.8304C17.5303 15.6937 16.8105 15.767 16.1575 16.0408C15.5045 16.3146 14.9478 16.7765 14.5582 17.3678C14.1686 17.9591 13.9638 18.6529 13.9699 19.361L14.0099 23.877L13.0859 23.954C12.7529 23.978 12.4209 24 12.0829 24ZM12.0829 1.99997C9.43074 1.98804 6.88246 3.03016 4.99866 4.89709C3.11485 6.76401 2.04984 9.30281 2.0379 11.955C2.02597 14.6071 3.06809 17.1554 4.93502 19.0392C6.80194 20.923 9.34074 21.988 11.9929 22L11.9689 19.375C11.9644 18.636 12.1062 17.9034 12.3861 17.2194C12.666 16.5355 13.0785 15.9137 13.5999 15.39C14.6443 14.347 16.0599 13.7611 17.5359 13.7611C19.0119 13.7611 20.4275 14.347 21.4719 15.39L21.4859 15.404C21.9125 14.234 22.1144 12.9939 22.0809 11.749C21.9874 9.21152 20.9441 6.80176 19.1577 4.99724C17.3714 3.19271 14.9723 2.12511 12.4359 2.00597C12.3169 1.99997 12.1999 1.99997 12.0819 1.99997H12.0829Z" fill="#2A3649"/>
</g>
<defs>
<clipPath id="clip0_758_37858">
<rect width="24" height="24" fill="white"/>
</clipPath>
</defs>
</svg>
