<svg width="40" height="41" viewBox="0 0 40 41" fill="none" xmlns="http://www.w3.org/2000/svg">
<g clip-path="url(#clip0_758_40328)">
<path d="M13.3333 20.5C18.8483 20.5 23.3333 16.015 23.3333 10.5C23.3333 4.985 18.8483 0.5 13.3333 0.5C7.81833 0.5 3.33333 4.985 3.33333 10.5C3.33333 16.015 7.81833 20.5 13.3333 20.5ZM13.3333 3.83333C17.01 3.83333 20 6.82333 20 10.5C20 14.1767 17.01 17.1667 13.3333 17.1667C9.65667 17.1667 6.66667 14.1767 6.66667 10.5C6.66667 6.82333 9.65667 3.83333 13.3333 3.83333ZM16.6667 25.5C16.6667 26.42 15.92 27.1667 15 27.1667C8.56667 27.1667 3.33333 32.4 3.33333 38.8333C3.33333 39.7533 2.58667 40.5 1.66667 40.5C0.746667 40.5 0 39.7533 0 38.8333C0 30.5633 6.73 23.8333 15 23.8333C15.92 23.8333 16.6667 24.58 16.6667 25.5ZM39.4067 30.0867L35.4633 33.2983L37.095 38.265C37.3183 38.9367 37.0917 39.6767 36.53 40.1083C35.9683 40.54 35.195 40.57 34.6033 40.185L30.0133 37.1967L25.5 40.2167C25.22 40.405 24.8967 40.4983 24.5733 40.4983C24.2217 40.4983 23.87 40.3867 23.5733 40.165C23.0067 39.7417 22.7717 39.005 22.9833 38.33L24.5517 33.3033L20.59 30.08C20.0567 29.6283 19.8617 28.8917 20.1033 28.235C20.345 27.5783 20.9683 27.1433 21.6667 27.1433H26.6683L28.4383 22.1767C28.6817 21.525 29.305 21.0917 30 21.0917C30.695 21.0917 31.32 21.525 31.5617 22.1767L33.3317 27.1433H38.3333C39.0333 27.1433 39.6583 27.5817 39.8983 28.2383C40.1383 28.895 39.9417 29.6333 39.4067 30.085V30.0867Z" fill="#2A3649"/>
</g>
<defs>
<clipPath id="clip0_758_40328">
<rect width="40" height="40" fill="white" transform="translate(0 0.5)"/>
</clipPath>
</defs>
</svg>
