<svg width="40" height="41" viewBox="0 0 40 41" fill="none" xmlns="http://www.w3.org/2000/svg">
<g clip-path="url(#clip0_758_40316)">
<path d="M20 8.83333C20.9217 8.83333 21.6667 9.57833 21.6667 10.5V20.2933C21.6667 20.875 21.365 21.4117 20.8683 21.7167L13.5217 26.21C13.2517 26.3767 12.95 26.4533 12.6533 26.4533C12.0917 26.4533 11.545 26.17 11.23 25.655C10.75 24.87 10.9967 23.845 11.7833 23.3633L18.3333 19.3583V10.5C18.3333 9.57833 19.0783 8.83333 20 8.83333ZM36.6667 22.1667H30C29.0783 22.1667 28.3333 22.9117 28.3333 23.8333C28.3333 24.755 29.0783 25.5 30 25.5H34.28L27.065 32.7133C26.7433 33.035 26.175 33.0367 25.85 32.7133L24.01 30.8733C22.425 29.285 19.6633 29.285 18.0733 30.8733L11.3183 37.6567C10.6683 38.31 10.6717 39.365 11.3233 40.015C11.6483 40.3383 12.075 40.5 12.5 40.5C12.9283 40.5 13.3567 40.335 13.6817 40.01L20.435 33.2267C20.7567 32.905 21.325 32.9033 21.65 33.2267L23.49 35.0667C25.075 36.655 27.84 36.6533 29.4233 35.0667L36.6667 27.825V32.165C36.6667 33.0867 37.4117 33.8317 38.3333 33.8317C39.255 33.8317 40 33.0867 40 32.165V25.4983C40 23.66 38.505 22.165 36.6667 22.165V22.1667ZM3.33333 20.5C3.33333 11.31 10.81 3.83333 20 3.83333C28.0467 3.83333 34.94 9.56667 36.3917 17.4683C36.56 18.3733 37.4183 18.9833 38.3317 18.8067C39.2367 18.64 39.835 17.7717 39.67 16.8667C37.9283 7.38333 29.655 0.5 20 0.5C8.97167 0.5 0 9.47167 0 20.5C0 26.0267 2.32 31.36 6.36333 35.13C6.68333 35.43 7.09333 35.5783 7.5 35.5783C7.94667 35.5783 8.39 35.4017 8.71833 35.0483C9.34667 34.3767 9.30833 33.3217 8.635 32.6933C5.26667 29.55 3.33167 25.1067 3.33167 20.5017L3.33333 20.5Z" fill="#2A3649"/>
</g>
<defs>
<clipPath id="clip0_758_40316">
<rect width="40" height="40" fill="white" transform="translate(0 0.5)"/>
</clipPath>
</defs>
</svg>
