<svg width="24" height="24" viewBox="0 0 24 24" fill="none" xmlns="http://www.w3.org/2000/svg">
<path d="M21.5 9H21V8.5C21 7.122 19.878 6 18.5 6H16V3H19C19.552 3 20 2.552 20 2C20 1.448 19.552 1 19 1H11C10.448 1 10 1.448 10 2C10 2.552 10.448 3 11 3H14V6H11.437C10.544 6 9.704 6.394 9.133 7.08L7.532 9H7.5C6.122 9 5 10.122 5 11.5V13H2V10C2 9.448 1.552 9 1 9C0.448 9 0 9.448 0 10V18C0 18.552 0.448 19 1 19C1.552 19 2 18.552 2 18V15H5V17.171C5 17.972 5.312 18.726 5.879 19.293L7.707 21.121C8.273 21.688 9.027 22 9.829 22H18.5C19.708 22 20.717 21.14 20.95 20H21.5C22.878 20 24 18.878 24 17.5V11.5C24 10.122 22.878 9 21.5 9ZM22 17.5C22 17.776 21.776 18 21.5 18H20C19.448 18 19 18.448 19 19V19.5C19 19.776 18.776 20 18.5 20H9.829C9.562 20 9.31 19.896 9.121 19.707L7.293 17.879C7.104 17.69 7 17.439 7 17.171V11.5C7 11.224 7.224 11 7.5 11H8C8.297 11 8.578 10.868 8.768 10.64L10.669 8.36C10.859 8.131 11.139 8 11.437 8H18.5C18.776 8 19 8.224 19 8.5V10C19 10.552 19.448 11 20 11H21.5C21.776 11 22 11.224 22 11.5V17.5Z" fill="#2A3649"/>
</svg>
