<svg width="24" height="19" viewBox="0 0 24 19" fill="none" xmlns="http://www.w3.org/2000/svg">
<path d="M24 7.69978C24 7.16278 23.914 6.63078 23.744 6.11878L22.405 2.10178C21.995 0.874781 20.852 0.0507812 19.559 0.0507812H16V12.0508H0V14.5508C0 16.4808 1.57 18.0508 3.5 18.0508C4.48 18.0508 5.364 17.6438 6 16.9928C6.636 17.6438 7.52 18.0508 8.5 18.0508C10.43 18.0508 12 16.4808 12 14.5508V14.0508H16V14.5508C16 16.4808 17.57 18.0508 19.5 18.0508C21.43 18.0508 23 16.4808 23 14.5508V14.0508H24V7.69978ZM18 12.0518V8.05178H22V12.0518H18ZM19.559 2.05178C19.99 2.05178 20.371 2.32578 20.508 2.73578L21.614 6.05178H18.001V2.05178H19.559ZM3.5 16.0518C2.673 16.0518 2 15.3788 2 14.5518V14.0518H5V14.5518C5 15.3788 4.327 16.0518 3.5 16.0518ZM10 14.5518C10 15.3788 9.327 16.0518 8.5 16.0518C7.673 16.0518 7 15.3788 7 14.5518V14.0518H10V14.5518ZM21 14.5518C21 15.3788 20.327 16.0518 19.5 16.0518C18.673 16.0518 18 15.3788 18 14.5518V14.0518H21V14.5518Z" fill="#2A3649"/>
</svg>
