<svg width="24" height="24" viewBox="0 0 24 24" fill="none" xmlns="http://www.w3.org/2000/svg">
<g clip-path="url(#clip0_758_37846)">
<path d="M23.598 11.717L20.897 4.29005C20.182 2.32105 18.294 0.998047 16.199 0.998047H7.802C5.706 0.998047 3.819 2.32105 3.104 4.28905L0.402 11.717C0.135 12.45 0 13.217 0 13.999V14.999C0 16.628 0.795 18.064 2.004 18.977C2.004 18.985 2 18.991 2 18.999V20.999C2 22.653 3.346 23.999 5 23.999C6.654 23.999 8 22.653 8 20.999V19.999H16V20.999C16 22.653 17.346 23.999 19 23.999C20.654 23.999 22 22.653 22 20.999V18.999C22 18.991 21.996 18.985 21.996 18.977C23.206 18.064 24 16.628 24 14.999V13.999C24 13.217 23.864 12.45 23.598 11.717ZM4.982 4.97305C5.412 3.79205 6.544 2.99905 7.801 2.99905H16.197C17.454 2.99905 18.587 3.79205 19.016 4.97405L20.48 8.99905H3.518L4.982 4.97305ZM6 20.999C6 21.55 5.552 21.999 5 21.999C4.448 21.999 4 21.55 4 20.999V19.898C4.323 19.964 4.658 19.999 5 19.999H6V20.999ZM20 20.999C20 21.55 19.552 21.999 19 21.999C18.448 21.999 18 21.55 18 20.999V19.999H19C19.342 19.999 19.677 19.964 20 19.898V20.999ZM19 17.999H16V16.999C16 16.447 15.553 15.999 15 15.999H9C8.447 15.999 8 16.447 8 16.999V17.999H5C3.346 17.999 2 16.653 2 14.999H4C4.553 14.999 5 14.551 5 13.999C5 13.447 4.553 12.999 4 12.999H2.121C2.165 12.798 2.21 12.596 2.281 12.401L2.791 10.999H21.209L21.719 12.401C21.79 12.596 21.835 12.797 21.879 12.999H20C19.447 12.999 19 13.447 19 13.999C19 14.551 19.447 14.999 20 14.999H22C22 16.653 20.654 17.999 19 17.999Z" fill="#2A3649"/>
</g>
<defs>
<clipPath id="clip0_758_37846">
<rect width="24" height="24" fill="white"/>
</clipPath>
</defs>
</svg>
