<svg width="16" height="20" viewBox="0 0 16 20" fill="none" xmlns="http://www.w3.org/2000/svg">
<path d="M7.29876 11C7.10216 11 6.91421 10.9121 6.77542 10.7558L5.21685 9.00052C4.92772 8.67502 4.92772 8.14727 5.21685 7.82211C5.50599 7.49661 5.97441 7.49661 6.26362 7.82211L7.29876 8.98785L9.73635 6.24412C10.0255 5.91863 10.4939 5.91863 10.7831 6.24412C11.0723 6.56962 11.0723 7.09695 10.7831 7.42253L7.82218 10.7558C7.68339 10.9121 7.49537 11 7.29876 11Z" fill="#38465A"/>
<path d="M8 16C3.58904 16 0 12.4114 0 8C0 3.58864 3.58904 0 8 0C12.411 0 16 3.58864 16 8C16 12.4114 12.411 16 8 16ZM8 1.6C4.47112 1.6 1.6 4.47112 1.6 8C1.6 11.5289 4.47112 14.4 8 14.4C11.5289 14.4 14.4 11.5289 14.4 8C14.4 4.47112 11.5289 1.6 8 1.6Z" fill="#38465A"/>
<path d="M8 20.0001C6.89713 20.0001 6 19.243 6 18.3123V14.8272C6 14.5166 6.2982 14.2646 6.66667 14.2646C7.03513 14.2646 7.33333 14.5166 7.33333 14.8272L7.33333 18.3123C7.33333 18.6225 7.63213 18.8749 8 18.8749C8.36787 18.8749 8.66667 18.6225 8.66667 18.3123V14.8281C8.66667 14.5175 8.96487 14.2655 9.33333 14.2655C9.7018 14.2655 10 14.5175 10 14.8281V18.3123C10 19.243 9.10287 20.0001 8 20.0001Z" fill="#38465A"/>
</svg>
