<svg width="20" height="20" viewBox="0 0 20 20" fill="none" xmlns="http://www.w3.org/2000/svg">
<path d="M6.66667 10C9.42417 10 11.6667 7.7575 11.6667 5C11.6667 2.2425 9.42417 0 6.66667 0C3.90917 0 1.66667 2.2425 1.66667 5C1.66667 7.7575 3.90917 10 6.66667 10ZM6.66667 1.66667C8.505 1.66667 10 3.16167 10 5C10 6.83833 8.505 8.33333 6.66667 8.33333C4.82833 8.33333 3.33333 6.83833 3.33333 5C3.33333 3.16167 4.82833 1.66667 6.66667 1.66667ZM8.325 12.6758C8.26 13.1317 7.84083 13.4483 7.3825 13.3842C7.14583 13.35 6.90417 13.3333 6.66667 13.3333C3.90917 13.3333 1.66667 15.5758 1.66667 18.3333V19.1667C1.66667 19.6267 1.29333 20 0.833333 20C0.373333 20 0 19.6267 0 19.1667V18.3333C0 14.6575 2.99083 11.6667 6.66667 11.6667C6.9825 11.6667 7.3025 11.6892 7.6175 11.7342C8.07333 11.7992 8.39 12.2208 8.32583 12.6767L8.325 12.6758ZM18.3333 11.7083V11.6658C18.3333 9.8275 16.8383 8.3325 15 8.3325C13.1617 8.3325 11.6667 9.8275 11.6667 11.6658V11.7083C10.7167 11.9017 10 12.7433 10 13.7492V16.6658C10 18.5042 11.495 19.9992 13.3333 19.9992H16.6667C18.505 19.9992 20 18.5042 20 16.6658V13.7492C20 12.7433 19.2833 11.9017 18.3333 11.7083ZM15 9.99917C15.9192 9.99917 16.6667 10.7467 16.6667 11.6658H13.3333C13.3333 10.7467 14.0808 9.99917 15 9.99917ZM18.3333 16.6658C18.3333 17.585 17.5858 18.3325 16.6667 18.3325H13.3333C12.4142 18.3325 11.6667 17.585 11.6667 16.6658V13.7492C11.6667 13.5192 11.8533 13.3325 12.0833 13.3325H17.9167C18.1467 13.3325 18.3333 13.5192 18.3333 13.7492V16.6658Z" fill="#38465A"/>
</svg>
