<svg width="24" height="24" viewBox="0 0 24 24" fill="none" xmlns="http://www.w3.org/2000/svg">
<g clip-path="url(#clip0_758_37825)">
<path d="M19 10H7V7H8.5C10.43 7 12 5.43 12 3.5C12 1.57 10.43 0 8.5 0H3.5C1.57 0 0 1.57 0 3.5C0 5.43 1.57 7 3.5 7H5V10C2.243 10 0 12.243 0 15V19C0 21.757 2.243 24 5 24H19C21.757 24 24 21.757 24 19V15C24 12.243 21.757 10 19 10ZM2 3.5C2 2.673 2.673 2 3.5 2H8.5C9.327 2 10 2.673 10 3.5C10 4.327 9.327 5 8.5 5H3.5C2.673 5 2 4.327 2 3.5ZM5 12H19C20.654 12 22 13.346 22 15V18H2V15C2 13.346 3.346 12 5 12ZM19 22H5C3.696 22 2.585 21.164 2.172 20H21.828C21.415 21.164 20.304 22 19 22ZM9 15C9 14.448 9.448 14 10 14C10.552 14 11 14.448 11 15C11 15.552 10.552 16 10 16C9.448 16 9 15.552 9 15ZM5 15C5 14.448 5.448 14 6 14C6.552 14 7 14.448 7 15C7 15.552 6.552 16 6 16C5.448 16 5 15.552 5 15ZM13 15C13 14.448 13.448 14 14 14C14.552 14 15 14.448 15 15C15 15.552 14.552 16 14 16C13.448 16 13 15.552 13 15ZM17 15C17 14.448 17.448 14 18 14C18.552 14 19 14.448 19 15C19 15.552 18.552 16 18 16C17.448 16 17 15.552 17 15Z" fill="#2A3649"/>
</g>
<defs>
<clipPath id="clip0_758_37825">
<rect width="24" height="24" fill="white"/>
</clipPath>
</defs>
</svg>
