<svg width="40" height="41" viewBox="0 0 40 41" fill="none" xmlns="http://www.w3.org/2000/svg">
<g clip-path="url(#clip0_758_40322)">
<path d="M36.6667 17.167V11.2003C36.6666 10.8105 36.6443 10.421 36.6 10.0337C36.3773 7.99487 35.5262 6.07578 34.1646 4.54212C32.8029 3.00846 30.9981 1.93614 29 1.47365C23.0695 0.18196 16.9305 0.18196 11 1.47365C9.00204 1.93637 7.19733 3.00876 5.83571 4.54237C4.4741 6.07598 3.62291 7.99496 3.4 10.0337C3.35567 10.421 3.33342 10.8105 3.33333 11.2003V17.167C2.44928 17.167 1.60143 17.5182 0.976311 18.1433C0.35119 18.7684 0 19.6163 0 20.5003L0 22.167C0 23.051 0.35119 23.8989 0.976311 24.524C1.60143 25.1491 2.44928 25.5003 3.33333 25.5003V28.8337C3.33256 30.1275 3.63342 31.4037 4.21205 32.561C4.79068 33.7182 5.63112 34.7246 6.66667 35.5003V36.3336C6.66563 37.3669 7.04857 38.3638 7.74114 39.1306C8.43372 39.8974 9.38652 40.3796 10.4146 40.4834C11.4426 40.5873 12.4726 40.3054 13.3046 39.6926C14.1365 39.0797 14.711 38.1796 14.9167 37.167H25.0833C25.289 38.1796 25.8635 39.0797 26.6954 39.6926C27.5274 40.3054 28.5574 40.5873 29.5854 40.4834C30.6135 40.3796 31.5663 39.8974 32.2589 39.1306C32.9514 38.3638 33.3344 37.3669 33.3333 36.3336V35.5003C34.3689 34.7246 35.2093 33.7182 35.7879 32.561C36.3666 31.4037 36.6674 30.1275 36.6667 28.8337V25.5003C37.5507 25.5003 38.3986 25.1491 39.0237 24.524C39.6488 23.8989 40 23.051 40 22.167V20.5003C40 19.6163 39.6488 18.7684 39.0237 18.1433C38.3986 17.5182 37.5507 17.167 36.6667 17.167ZM6.66667 22.167V12.167H33.3333V22.167H6.66667ZM11.7533 4.72032C17.1898 3.5377 22.8169 3.5377 28.2533 4.72032C29.3096 4.96646 30.2881 5.47121 31.1009 6.18919C31.9137 6.90718 32.5354 7.81589 32.91 8.83365H26.6667C26.6667 8.39162 26.4911 7.9677 26.1785 7.65514C25.8659 7.34258 25.442 7.16699 25 7.16699H15C14.558 7.16699 14.134 7.34258 13.8215 7.65514C13.5089 7.9677 13.3333 8.39162 13.3333 8.83365H7.09C7.46524 7.81509 8.08793 6.90586 8.90198 6.18781C9.71604 5.46977 10.6959 4.96547 11.7533 4.72032ZM28.3333 33.8336H11.6667C10.3406 33.8336 9.06881 33.3069 8.13113 32.3692C7.19345 31.4315 6.66667 30.1597 6.66667 28.8337V25.5003H10V27.167C10 27.609 10.1756 28.0329 10.4882 28.3455C10.8007 28.6581 11.2246 28.8337 11.6667 28.8337C12.1087 28.8337 12.5326 28.6581 12.8452 28.3455C13.1577 28.0329 13.3333 27.609 13.3333 27.167V25.5003H26.6667V27.167C26.6667 27.609 26.8423 28.0329 27.1548 28.3455C27.4674 28.6581 27.8913 28.8337 28.3333 28.8337C28.7754 28.8337 29.1993 28.6581 29.5118 28.3455C29.8244 28.0329 30 27.609 30 27.167V25.5003H33.3333V28.8337C33.3333 30.1597 32.8065 31.4315 31.8689 32.3692C30.9312 33.3069 29.6594 33.8336 28.3333 33.8336Z" fill="#2A3649"/>
</g>
<defs>
<clipPath id="clip0_758_40322">
<rect width="40" height="40" fill="white" transform="translate(0 0.5)"/>
</clipPath>
</defs>
</svg>
