<svg width="40" height="41" viewBox="0 0 40 41" fill="none" xmlns="http://www.w3.org/2000/svg">
<g clip-path="url(#clip0_758_40310)">
<path d="M39.8191 11.2567C39.7197 11.4519 39.5829 11.6256 39.4163 11.7679C39.2497 11.9102 39.0568 12.0183 38.8484 12.0859C38.6401 12.1536 38.4204 12.1795 38.202 12.1622C37.9837 12.1448 37.7708 12.0847 37.5758 11.985L22.9208 4.50003C22.0067 4.05763 21.0041 3.8288 19.9886 3.83082C18.9731 3.83284 17.9714 4.06567 17.0591 4.51169L2.42576 11.9784C2.03191 12.1795 1.5743 12.2159 1.15359 12.0796C0.732886 11.9434 0.383546 11.6455 0.182423 11.2517C-0.0186992 10.8578 -0.0551293 10.4002 0.0811471 9.97953C0.217424 9.55882 0.515244 9.20948 0.90909 9.00836L15.5658 1.53836C16.9424 0.862956 18.4551 0.51082 19.9886 0.508798C21.522 0.506776 23.0356 0.854922 24.4141 1.52669L39.0924 9.01503C39.486 9.216 39.7836 9.56504 39.9199 9.98541C40.0561 10.4058 40.0199 10.863 39.8191 11.2567ZM36.7974 22.3667C37.8033 24.1307 38.3328 26.1261 38.3341 28.1567V30.5C38.3338 31.67 38.0256 32.8192 37.4405 33.8323C36.8554 34.8454 36.0139 35.6867 35.0008 36.2717V37.1667C35.0008 38.0507 34.6496 38.8986 34.0244 39.5237C33.3993 40.1488 32.5515 40.5 31.6674 40.5C30.7834 40.5 29.9355 40.1488 29.3104 39.5237C28.6853 38.8986 28.3341 38.0507 28.3341 37.1667H11.6674C11.6674 38.0507 11.3162 38.8986 10.6911 39.5237C10.066 40.1488 9.21814 40.5 8.33409 40.5C7.45003 40.5 6.60219 40.1488 5.97707 39.5237C5.35195 38.8986 5.00076 38.0507 5.00076 37.1667V36.2717C3.98756 35.6867 3.14615 34.8454 2.56105 33.8323C1.97594 32.8192 1.66775 31.67 1.66742 30.5V28.1567C1.66866 26.1261 2.19823 24.1307 3.20409 22.3667L6.63409 16.3667C7.36449 15.0925 8.41787 14.0333 9.68806 13.2959C10.9583 12.5586 12.4004 12.1691 13.8691 12.1667H26.1324C27.6011 12.1691 29.0433 12.5586 30.3134 13.2959C31.5836 14.0333 32.637 15.0925 33.3674 16.3667L36.7974 22.3667ZM6.20576 23.8334H33.7958L30.4741 18.02C30.0356 17.2555 29.4035 16.6201 28.6413 16.1777C27.8791 15.7353 27.0137 15.5015 26.1324 15.5H13.8691C12.9892 15.503 12.1256 15.7374 11.365 16.1798C10.6044 16.6221 9.9735 17.2568 9.53576 18.02L6.20576 23.8334ZM35.0008 28.1567C35 27.8258 34.9799 27.4952 34.9408 27.1667H31.6674V28.8334C31.6674 29.2754 31.4918 29.6993 31.1793 30.0119C30.8667 30.3244 30.4428 30.5 30.0008 30.5C29.5587 30.5 29.1348 30.3244 28.8222 30.0119C28.5097 29.6993 28.3341 29.2754 28.3341 28.8334V27.1667H11.6674V28.8334C11.6674 29.2754 11.4918 29.6993 11.1793 30.0119C10.8667 30.3244 10.4428 30.5 10.0008 30.5C9.55873 30.5 9.13481 30.3244 8.82225 30.0119C8.50968 29.6993 8.33409 29.2754 8.33409 28.8334V27.1667H5.06076C5.02158 27.4952 5.00154 27.8258 5.00076 28.1567V30.5C5.00076 31.3841 5.35195 32.2319 5.97707 32.857C6.60219 33.4822 7.45003 33.8334 8.33409 33.8334H31.6674C32.5515 33.8334 33.3993 33.4822 34.0244 32.857C34.6496 32.2319 35.0008 31.3841 35.0008 30.5V28.1567Z" fill="#2A3649"/>
</g>
<defs>
<clipPath id="clip0_758_40310">
<rect width="40" height="40" fill="white" transform="translate(0 0.5)"/>
</clipPath>
</defs>
</svg>
